<svg fill="#000000" height="128px" width="128px" version="1.1" id="Layer_1" xmlns="http://www.w3.org/2000/svg" xmlns:xlink="http://www.w3.org/1999/xlink" viewBox="0 0 512 512" xml:space="preserve"><g id="SVGRepo_bgCarrier" stroke-width="0"></g><g id="SVGRepo_tracerCarrier" stroke-linecap="round" stroke-linejoin="round"></g><g id="SVGRepo_iconCarrier"> <g> <g> <g> <path d="M466.708,8.44H45.292C20.318,8.44,0,28.758,0,53.732v280.756c0,24.974,20.318,45.292,45.292,45.292H194.11v56.264 h-28.132c-31.024,0-56.264,25.24-56.264,56.264c0,6.214,5.039,11.253,11.253,11.253h270.066c6.214,0,11.253-5.039,11.253-11.253 c0-31.024-25.24-56.264-56.264-56.264H317.89V379.78h148.818c24.974,0,45.292-20.318,45.292-45.292V53.732 C512,28.758,491.682,8.44,466.708,8.44z M346.022,458.549c14.67,0,27.186,9.406,31.83,22.505H134.148 c4.644-13.099,17.159-22.505,31.83-22.505H346.022z M216.615,436.044V379.78h78.769v56.264H216.615z M489.495,334.488 c0,12.565-10.222,22.787-22.787,22.787H45.292c-12.565,0-22.787-10.222-22.787-22.787v-22.224h466.989V334.488z M489.495,289.758 H22.505V53.732c0-12.565,10.222-22.787,22.787-22.787h421.415c12.565,0,22.787,10.222,22.787,22.787V289.758z"></path> <path d="M368.125,245.873h-16.655c-2.12-36.352-24.635-67.298-56.242-81.573c13.827-11.36,22.663-28.583,22.663-47.833 c0-34.126-27.764-61.89-61.89-61.89s-61.89,27.764-61.89,61.89c0,19.25,8.837,36.474,22.663,47.833 c-33.228,15.007-56.421,48.435-56.421,87.2v5.626c0,6.214,5.039,11.253,11.253,11.253h196.52c6.214,0,11.253-5.039,11.253-11.253 C379.377,250.911,374.338,245.873,368.125,245.873z M216.615,116.466c0-21.717,17.668-39.385,39.385-39.385 s39.385,17.668,39.385,39.385S277.717,155.851,256,155.851S216.615,138.183,216.615,116.466z M183.071,245.873 c2.883-37.712,34.491-67.516,72.929-67.516c38.438,0,70.046,29.804,72.929,67.516H183.071z"></path> <path d="M437.169,245.873h-20.255c-6.214,0-11.253,5.039-11.253,11.253c0,6.214,5.039,11.253,11.253,11.253h20.255 c6.214,0,11.253-5.039,11.253-11.253C448.422,250.911,443.383,245.873,437.169,245.873z"></path> <path d="M69.204,78.207c-6.214,0-11.253,5.039-11.253,11.253v122.655c0,6.214,5.039,11.253,11.253,11.253 s11.253-5.039,11.253-11.253V89.459C80.457,83.246,75.418,78.207,69.204,78.207z"></path> <path d="M442.796,78.207c-6.214,0-11.253,5.039-11.253,11.253v122.655c0,6.214,5.039,11.253,11.253,11.253 c6.214,0,11.253-5.039,11.253-11.253V89.459C454.048,83.246,449.009,78.207,442.796,78.207z"></path> </g> </g> </g> </g></svg>